<svg id="visual" viewBox="0 0 960 300" width="960" height="300" xmlns="http://www.w3.org/2000/svg" xmlns:xlink="http://www.w3.org/1999/xlink" version="1.1"><rect x="0" y="0" width="960" height="300" fill="#001220"></rect><path d="M0 168L22.8 174.7C45.7 181.3 91.3 194.7 137 198.3C182.7 202 228.3 196 274 192.3C319.7 188.7 365.3 187.3 411.2 190.8C457 194.3 503 202.7 548.8 197.2C594.7 191.7 640.3 172.3 686 175.2C731.7 178 777.3 203 823 216.3C868.7 229.7 914.3 231.3 937.2 232.2L960 233L960 301L937.2 301C914.3 301 868.7 301 823 301C777.3 301 731.7 301 686 301C640.3 301 594.7 301 548.8 301C503 301 457 301 411.2 301C365.3 301 319.7 301 274 301C228.3 301 182.7 301 137 301C91.3 301 45.7 301 22.8 301L0 301Z" fill="#f40035"></path><path d="M0 200L22.8 200.2C45.7 200.3 91.3 200.7 137 201C182.7 201.3 228.3 201.7 274 204.2C319.7 206.7 365.3 211.3 411.2 208.7C457 206 503 196 548.8 192.7C594.7 189.3 640.3 192.7 686 198.8C731.7 205 777.3 214 823 220C868.7 226 914.3 229 937.2 230.5L960 232L960 301L937.2 301C914.3 301 868.7 301 823 301C777.3 301 731.7 301 686 301C640.3 301 594.7 301 548.8 301C503 301 457 301 411.2 301C365.3 301 319.7 301 274 301C228.3 301 182.7 301 137 301C91.3 301 45.7 301 22.8 301L0 301Z" fill="#ca005b"></path><path d="M0 204L22.8 210.2C45.7 216.3 91.3 228.7 137 232.2C182.7 235.7 228.3 230.3 274 225C319.7 219.7 365.3 214.3 411.2 213.7C457 213 503 217 548.8 215.8C594.7 214.7 640.3 208.3 686 209.8C731.7 211.3 777.3 220.7 823 219.3C868.7 218 914.3 206 937.2 200L960 194L960 301L937.2 301C914.3 301 868.7 301 823 301C777.3 301 731.7 301 686 301C640.3 301 594.7 301 548.8 301C503 301 457 301 411.2 301C365.3 301 319.7 301 274 301C228.3 301 182.7 301 137 301C91.3 301 45.7 301 22.8 301L0 301Z" fill="#8f126c"></path><path d="M0 223L22.8 227.5C45.7 232 91.3 241 137 241.8C182.7 242.7 228.3 235.3 274 232.2C319.7 229 365.3 230 411.2 236C457 242 503 253 548.8 258.2C594.7 263.3 640.3 262.7 686 261.5C731.7 260.3 777.3 258.7 823 258.8C868.7 259 914.3 261 937.2 262L960 263L960 301L937.2 301C914.3 301 868.7 301 823 301C777.3 301 731.7 301 686 301C640.3 301 594.7 301 548.8 301C503 301 457 301 411.2 301C365.3 301 319.7 301 274 301C228.3 301 182.7 301 137 301C91.3 301 45.7 301 22.8 301L0 301Z" fill="#502464"></path><path d="M0 243L22.8 244.8C45.7 246.7 91.3 250.3 137 251.3C182.7 252.3 228.3 250.7 274 253C319.7 255.3 365.3 261.7 411.2 260.5C457 259.3 503 250.7 548.8 246.2C594.7 241.7 640.3 241.3 686 247.5C731.7 253.7 777.3 266.3 823 266C868.7 265.7 914.3 252.3 937.2 245.7L960 239L960 301L937.2 301C914.3 301 868.7 301 823 301C777.3 301 731.7 301 686 301C640.3 301 594.7 301 548.8 301C503 301 457 301 411.2 301C365.3 301 319.7 301 274 301C228.3 301 182.7 301 137 301C91.3 301 45.7 301 22.8 301L0 301Z" fill="#192048"></path><path d="M0 259L22.8 259.5C45.7 260 91.3 261 137 265.7C182.7 270.3 228.3 278.7 274 279.2C319.7 279.7 365.3 272.3 411.2 269.5C457 266.7 503 268.3 548.8 268C594.7 267.7 640.3 265.3 686 268.2C731.7 271 777.3 279 823 279C868.7 279 914.3 271 937.2 267L960 263L960 301L937.2 301C914.3 301 868.7 301 823 301C777.3 301 731.7 301 686 301C640.3 301 594.7 301 548.8 301C503 301 457 301 411.2 301C365.3 301 319.7 301 274 301C228.3 301 182.7 301 137 301C91.3 301 45.7 301 22.8 301L0 301Z" fill="#001122"></path></svg>