<svg id="visual" viewBox="0 0 960 300" width="960" height="300" xmlns="http://www.w3.org/2000/svg" xmlns:xlink="http://www.w3.org/1999/xlink" version="1.1"><rect x="0" y="0" width="960" height="300" fill="#001220"></rect><path d="M0 111L22.8 107.8C45.7 104.7 91.3 98.3 137 98.5C182.7 98.7 228.3 105.3 274 101C319.7 96.7 365.3 81.3 411.2 84.3C457 87.3 503 108.7 548.8 121.8C594.7 135 640.3 140 686 136.7C731.7 133.3 777.3 121.7 823 110.5C868.7 99.3 914.3 88.7 937.2 83.3L960 78L960 0L937.2 0C914.3 0 868.7 0 823 0C777.3 0 731.7 0 686 0C640.3 0 594.7 0 548.8 0C503 0 457 0 411.2 0C365.3 0 319.7 0 274 0C228.3 0 182.7 0 137 0C91.3 0 45.7 0 22.8 0L0 0Z" fill="#eb00ff"></path><path d="M0 58L22.8 58.7C45.7 59.3 91.3 60.7 137 61.8C182.7 63 228.3 64 274 74.5C319.7 85 365.3 105 411.2 108.2C457 111.3 503 97.7 548.8 95.2C594.7 92.7 640.3 101.3 686 107.3C731.7 113.3 777.3 116.7 823 116C868.7 115.3 914.3 110.7 937.2 108.3L960 106L960 0L937.2 0C914.3 0 868.7 0 823 0C777.3 0 731.7 0 686 0C640.3 0 594.7 0 548.8 0C503 0 457 0 411.2 0C365.3 0 319.7 0 274 0C228.3 0 182.7 0 137 0C91.3 0 45.7 0 22.8 0L0 0Z" fill="#993ce4"></path><path d="M0 62L22.8 58.7C45.7 55.3 91.3 48.7 137 47.8C182.7 47 228.3 52 274 59.2C319.7 66.3 365.3 75.7 411.2 77.2C457 78.7 503 72.3 548.8 68.2C594.7 64 640.3 62 686 65C731.7 68 777.3 76 823 78.2C868.7 80.3 914.3 76.7 937.2 74.8L960 73L960 0L937.2 0C914.3 0 868.7 0 823 0C777.3 0 731.7 0 686 0C640.3 0 594.7 0 548.8 0C503 0 457 0 411.2 0C365.3 0 319.7 0 274 0C228.3 0 182.7 0 137 0C91.3 0 45.7 0 22.8 0L0 0Z" fill="#5041bc"></path><path d="M0 29L22.8 35C45.7 41 91.3 53 137 59.5C182.7 66 228.3 67 274 63.2C319.7 59.3 365.3 50.7 411.2 48.3C457 46 503 50 548.8 54.7C594.7 59.3 640.3 64.7 686 64.5C731.7 64.3 777.3 58.7 823 54.7C868.7 50.7 914.3 48.3 937.2 47.2L960 46L960 0L937.2 0C914.3 0 868.7 0 823 0C777.3 0 731.7 0 686 0C640.3 0 594.7 0 548.8 0C503 0 457 0 411.2 0C365.3 0 319.7 0 274 0C228.3 0 182.7 0 137 0C91.3 0 45.7 0 22.8 0L0 0Z" fill="#04378b"></path><path d="M0 39L22.8 42C45.7 45 91.3 51 137 52C182.7 53 228.3 49 274 45.3C319.7 41.7 365.3 38.3 411.2 35.2C457 32 503 29 548.8 33.2C594.7 37.3 640.3 48.7 686 51C731.7 53.3 777.3 46.7 823 39.2C868.7 31.7 914.3 23.3 937.2 19.2L960 15L960 0L937.2 0C914.3 0 868.7 0 823 0C777.3 0 731.7 0 686 0C640.3 0 594.7 0 548.8 0C503 0 457 0 411.2 0C365.3 0 319.7 0 274 0C228.3 0 182.7 0 137 0C91.3 0 45.7 0 22.8 0L0 0Z" fill="#002655"></path><path d="M0 24L22.8 21.8C45.7 19.7 91.3 15.3 137 11.8C182.7 8.3 228.3 5.7 274 8C319.7 10.3 365.3 17.7 411.2 17.7C457 17.7 503 10.3 548.8 13C594.7 15.7 640.3 28.3 686 29.5C731.7 30.7 777.3 20.3 823 13.7C868.7 7 914.3 4 937.2 2.5L960 1L960 0L937.2 0C914.3 0 868.7 0 823 0C777.3 0 731.7 0 686 0C640.3 0 594.7 0 548.8 0C503 0 457 0 411.2 0C365.3 0 319.7 0 274 0C228.3 0 182.7 0 137 0C91.3 0 45.7 0 22.8 0L0 0Z" fill="#001122"></path></svg>